<?xml version="1.0" standalone="no"?>
<!DOCTYPE svg PUBLIC "-//W3C//DTD SVG 20010904//EN"
 "http://www.w3.org/TR/2001/REC-SVG-20010904/DTD/svg10.dtd">
<svg version="1.0" xmlns="http://www.w3.org/2000/svg"
 width="300.000000pt" height="476.000000pt" viewBox="0 0 300.000000 476.000000"
 preserveAspectRatio="xMidYMid meet">
<metadata>
Created by potrace 1.10, written by Peter Selinger 2001-2011
</metadata>
<g transform="translate(0.000000,476.000000) scale(0.100000,-0.100000)"
fill="#000000" stroke="none">
<path d="M1203 4400 c0 -94 -13 -166 -49 -285 -28 -92 -48 -126 -58 -99 -3 8
-6 28 -6 44 0 36 -33 143 -60 195 -12 23 -18 30 -15 15 14 -51 17 -276 5 -333
-13 -63 -24 -72 -34 -27 -5 28 -52 87 -61 78 -2 -2 3 -24 11 -48 19 -53 13
-124 -16 -208 -11 -31 -20 -66 -20 -77 0 -12 -16 -44 -35 -71 -39 -55 -43 -88
-19 -155 8 -24 18 -72 21 -106 3 -35 9 -63 13 -63 3 0 21 11 40 25 18 14 49
28 67 31 l34 6 -6 52 c-6 48 -5 54 22 83 16 17 49 37 74 44 53 15 72 29 39 29
-22 0 -23 1 -5 20 24 27 61 25 124 -6 28 -15 54 -24 56 -22 3 2 -9 20 -25 39
-38 45 -37 53 4 29 45 -27 64 -50 98 -117 l29 -58 -7 79 c-11 141 -51 251
-114 311 l-28 27 29 -58 c40 -80 39 -84 -25 -84 -44 0 -60 -5 -85 -26 -24 -20
-30 -31 -25 -50 4 -17 2 -24 -8 -24 -17 0 -58 -41 -58 -58 0 -7 -19 -21 -42
-32 -47 -22 -84 -68 -94 -118 -6 -27 -11 -32 -35 -32 -25 0 -29 4 -29 28 0 16
-9 61 -19 102 -19 72 -19 73 0 99 10 14 30 57 44 94 13 37 34 80 45 95 23 29
88 82 102 82 15 0 -19 -54 -57 -90 -60 -57 -73 -92 -77 -212 -1 -59 0 -104 3
-100 3 4 13 28 23 54 19 51 40 76 51 59 3 -6 1 -20 -5 -31 -13 -24 -3 -26 28
-5 19 14 82 96 82 108 0 2 -12 2 -26 -1 -24 -4 -26 -3 -23 34 9 133 168 250
308 229 l46 -7 -37 -15 c-21 -8 -38 -18 -38 -22 0 -3 38 -35 85 -71 47 -36 85
-67 85 -71 0 -3 -15 -3 -32 -1 l-33 5 37 -41 c73 -81 91 -132 28 -78 -33 27
-56 35 -44 14 4 -7 20 -32 36 -55 47 -69 60 -119 60 -223 1 -112 -16 -182 -78
-332 -24 -59 -44 -112 -44 -118 0 -7 23 24 52 67 29 44 105 131 174 200 l122
122 -10 41 c-6 22 -9 43 -6 45 2 2 26 -2 53 -10 80 -24 96 -16 30 15 -97 45
-105 56 -105 154 l0 83 53 7 c28 3 66 6 84 6 51 0 48 18 -4 25 -108 13 -113
15 -113 35 0 11 9 47 21 81 12 33 19 63 16 65 -6 6 -62 -91 -72 -123 -7 -26
-23 -29 -47 -10 -12 9 -17 38 -21 115 l-5 103 34 16 c19 9 34 20 34 24 0 4 12
10 26 13 15 4 24 9 22 12 -3 2 -33 -3 -67 -12 -35 -8 -64 -14 -65 -12 -1 2
-35 56 -75 121 -41 65 -85 127 -99 137 -26 21 -42 20 -24 -2 35 -42 122 -224
122 -255 0 -14 -225 10 -242 26 -4 4 7 29 25 56 31 46 51 85 43 85 -1 0 -23
-18 -47 -41 -40 -37 -136 -95 -144 -87 -2 2 1 24 7 48 13 60 4 352 -14 410
l-14 45 -1 -85z m398 -547 c6 -126 1 -130 -85 -77 -87 52 -96 61 -64 68 13 3
48 12 78 19 30 8 58 15 63 16 4 0 8 -11 8 -26z m-567 -175 c-4 -13 -17 -36
-30 -51 -20 -23 -24 -25 -24 -10 0 23 36 83 51 83 6 0 8 -9 3 -22z m684 -67
c11 -6 11 -20 3 -66 -6 -32 -13 -61 -16 -63 -10 -10 -60 36 -57 51 1 9 9 32
17 52 15 35 29 42 53 26z m-62 -181 c39 -28 44 -35 44 -70 0 -31 -3 -38 -15
-34 -21 9 -96 134 -79 134 3 0 25 -14 50 -30z"/>
<path d="M2152 4247 c-21 -48 -13 -242 14 -330 4 -16 -9 -8 -47 29 -83 78
-180 151 -247 184 -34 16 -66 30 -71 30 -21 0 -10 -15 27 -38 100 -62 215
-210 250 -321 24 -78 23 -239 -2 -304 -19 -51 -26 -56 -46 -31 -16 19 -99 68
-105 62 -3 -2 18 -28 45 -57 28 -29 50 -61 50 -70 0 -30 -73 -138 -141 -208
-71 -74 -455 -443 -461 -443 -2 0 -2 20 0 44 5 54 -11 107 -40 132 -21 19 -21
19 -15 -17 10 -68 -67 -160 -110 -133 -28 17 -27 61 4 140 26 68 32 75 78 100
77 42 102 64 140 118 47 71 63 141 54 241 -6 74 -33 165 -48 165 -3 0 -4 -25
-3 -56 4 -58 -17 -132 -42 -154 -11 -8 -16 0 -26 41 -19 79 -100 154 -139 129
-8 -4 -2 -9 17 -13 16 -3 37 -18 47 -33 21 -32 23 -100 5 -135 -27 -53 -100
-111 -100 -81 0 15 -76 92 -90 92 -9 0 -5 -9 9 -24 18 -19 57 -116 49 -120 -6
-3 -99 -78 -110 -89 -71 -69 -154 -128 -217 -152 -40 -16 -74 -33 -77 -37 -6
-10 56 -1 94 13 29 11 28 5 -12 -55 -68 -104 -130 -251 -141 -336 -5 -45 -5
-45 10 10 23 81 99 215 172 302 61 74 136 139 234 206 45 30 47 31 52 11 8
-32 0 -43 -59 -84 -84 -58 -225 -222 -223 -259 0 -6 5 -2 12 9 21 36 153 159
196 183 l41 23 -11 -27 c-11 -30 -54 -95 -142 -218 -74 -101 -139 -222 -167
-311 -32 -98 -64 -159 -92 -172 -68 -34 -107 -21 -139 45 -19 39 -21 55 -15
131 3 47 8 104 11 126 l5 40 -25 -53 c-69 -145 -108 -424 -85 -607 25 -199
101 -467 189 -670 60 -139 198 -392 227 -416 20 -16 17 -5 -12 52 -59 118
-136 377 -155 524 -20 164 4 376 54 472 13 23 14 22 31 -34 27 -85 93 -212
136 -261 34 -38 39 -50 45 -115 8 -88 49 -263 76 -320 22 -47 22 -51 -6 105
-9 48 -15 116 -13 150 l3 63 66 -65 c115 -114 206 -270 245 -419 27 -103 13
-268 -32 -389 -14 -35 -23 -66 -21 -69 9 -9 29 29 57 111 53 153 62 282 30
434 -28 134 -85 238 -220 399 -61 73 -114 143 -119 156 -9 24 11 175 28 204 9
18 79 -71 123 -157 l29 -55 -7 39 c-8 59 -39 134 -79 196 -29 45 -34 61 -29
90 18 112 74 244 167 399 31 52 57 96 57 99 0 9 116 179 196 287 96 128 210
246 200 205 -3 -14 -13 -79 -23 -145 -19 -131 -18 -130 -113 -231 -61 -65 -61
-66 -86 -49 -31 20 -44 12 -21 -13 10 -10 17 -24 17 -30 0 -6 -23 -42 -51 -79
-60 -80 -94 -144 -103 -195 -9 -50 -1 -48 23 7 11 24 32 62 48 82 49 67 105
133 112 133 12 0 42 -94 55 -172 15 -85 8 -119 -35 -182 -42 -63 -96 -182
-114 -251 -8 -32 -14 -91 -14 -130 l1 -70 13 82 c16 105 88 256 174 371 91
120 94 121 126 15 15 -49 40 -128 56 -176 16 -49 26 -94 22 -100 -4 -7 -23
-33 -44 -59 -86 -110 -195 -391 -219 -566 -7 -51 -10 -95 -7 -98 3 -3 8 11 12
32 12 83 68 262 110 350 38 82 154 266 176 279 4 3 24 -19 43 -49 19 -30 44
-60 55 -66 27 -14 26 -4 -3 34 -38 50 -58 97 -52 120 7 25 125 149 286 299
247 232 356 387 417 592 23 78 27 107 26 210 -1 66 -6 152 -12 190 -34 213
-44 384 -28 459 8 36 7 39 -8 26 -9 -8 -27 -34 -39 -59 l-23 -44 -51 129 c-69
175 -82 227 -91 346 -7 97 -8 101 -21 73 -8 -18 -15 -84 -18 -168 l-4 -139
-35 49 c-91 126 -164 346 -176 523 -3 45 -3 45 -15 17z m121 -727 c40 -80 48
-180 22 -263 -20 -63 -34 -88 -41 -70 -3 7 -28 49 -55 95 l-50 83 20 80 c12
44 21 110 21 145 l0 64 26 -35 c14 -19 39 -63 57 -99z m-119 -379 l27 -85
-152 -145 c-84 -80 -155 -147 -159 -149 -10 -4 5 94 30 185 22 83 60 149 150
265 45 58 45 58 61 36 9 -12 29 -60 43 -107z m291 49 c20 -64 -1 -209 -46
-318 -23 -55 -28 -58 -61 -41 -28 15 -33 5 -13 -25 16 -25 16 -28 -1 -53 -26
-41 -98 -123 -107 -123 -4 0 -10 8 -13 18 -19 58 -51 132 -71 164 -13 21 -23
41 -23 45 1 5 24 26 52 48 105 83 258 256 258 292 0 20 18 15 25 -7z m95 -413
c1 -146 -130 -401 -317 -622 -82 -96 -205 -225 -214 -225 -3 0 -9 13 -12 29
-3 16 -18 42 -32 57 -26 29 -26 29 -19 4 13 -42 6 -132 -12 -172 -9 -21 -20
-38 -24 -38 -18 0 -56 145 -85 326 -6 41 -6 42 62 103 77 69 86 68 99 -15 12
-83 31 -43 37 76 l2 55 74 52 c40 29 77 53 81 53 11 0 33 -143 28 -184 -2 -20
-1 -36 3 -36 15 0 22 40 27 149 l5 114 93 90 c56 53 113 120 141 163 48 76 63
81 63 21z m-477 -39 c20 -29 48 -79 63 -111 l26 -58 -23 -26 c-13 -14 -65 -56
-115 -94 -51 -37 -114 -88 -140 -113 -27 -24 -52 -42 -56 -40 -8 5 -1 160 13
264 9 73 10 75 62 120 28 25 68 60 87 77 19 18 38 33 41 33 3 0 22 -24 42 -52z
m-830 -175 c-27 -27 -71 -70 -97 -98 l-48 -50 7 50 c3 28 10 66 15 85 9 35 10
36 63 36 30 1 62 6 73 12 39 23 34 11 -13 -35z m507 -105 c-1 -40 1 -112 5
-159 6 -72 5 -87 -7 -92 -11 -4 -21 10 -38 51 -12 32 -36 81 -52 110 l-29 53
52 54 c29 30 56 55 61 55 5 0 9 -33 8 -72z m-449 -39 c-35 -63 -130 -282 -156
-359 -22 -68 -32 -53 -46 70 -8 67 -7 95 2 112 14 27 220 240 226 234 2 -2 -9
-28 -26 -57z m-295 14 c-3 -10 -6 -48 -7 -84 -2 -57 -6 -70 -31 -100 l-29 -34
7 40 c13 87 47 195 60 195 3 0 3 -8 0 -17z m14 -318 c0 -9 16 -62 35 -119 l36
-103 -16 -64 c-8 -35 -15 -81 -15 -101 0 -20 -4 -39 -8 -42 -23 -14 -112 248
-112 330 0 25 9 48 31 75 32 41 49 49 49 24z m-344 -111 c24 -10 50 -13 80 -8
l45 6 -17 -38 c-36 -82 -62 -162 -79 -239 -26 -121 -30 -128 -44 -80 -27 94
-51 231 -57 332 l-6 108 21 -33 c12 -18 37 -40 57 -48z"/>
</g>
</svg>
